<?xml version="1.0" encoding="UTF-8" standalone="no"?>
<!-- Created with Inkscape (http://www.inkscape.org/) -->

<svg
   xmlns:dc="http://purl.org/dc/elements/1.1/"
   xmlns:cc="http://creativecommons.org/ns#"
   xmlns:rdf="http://www.w3.org/1999/02/22-rdf-syntax-ns#"
   xmlns:svg="http://www.w3.org/2000/svg"
   xmlns="http://www.w3.org/2000/svg"
   xmlns:sodipodi="http://sodipodi.sourceforge.net/DTD/sodipodi-0.dtd"
   xmlns:inkscape="http://www.inkscape.org/namespaces/inkscape"
   width="210mm"
   height="297mm"
   viewBox="0 0 210 297"
   version="1.1"
   id="svg8"
   inkscape:version="0.92.1 r15371"
   sodipodi:docname="oko.svg">
  <defs
     id="defs2" />
  <sodipodi:namedview
     id="base"
     pagecolor="#ffffff"
     bordercolor="#666666"
     borderopacity="1.0"
     inkscape:pageopacity="0.0"
     inkscape:pageshadow="2"
     inkscape:zoom="1.4"
     inkscape:cx="307.23174"
     inkscape:cy="633.34846"
     inkscape:document-units="mm"
     inkscape:current-layer="layer1"
     showgrid="false"
     inkscape:window-width="1366"
     inkscape:window-height="705"
     inkscape:window-x="-8"
     inkscape:window-y="-8"
     inkscape:window-maximized="1" />
  <metadata
     id="metadata5">
    <rdf:RDF>
      <cc:Work
         rdf:about="">
        <dc:format>image/svg+xml</dc:format>
        <dc:type
           rdf:resource="http://purl.org/dc/dcmitype/StillImage" />
        <dc:title />
      </cc:Work>
    </rdf:RDF>
  </metadata>
  <g
     inkscape:label="Vrstva 1"
     inkscape:groupmode="layer"
     id="layer1">
    <g
       id="g4509">
      <path
         id="path4485"
         transform="scale(0.26458333)"
         d="M 448.57227 315.37695 A 128.57143 128.57143 0 0 0 345.25391 367.67188 A 54.944566 79.944554 0 0 0 292.19922 447.51953 A 54.944566 79.944554 0 0 0 347.14258 527.46484 A 54.944566 79.944554 0 0 0 350.84766 527.27344 A 128.57143 128.57143 0 0 0 448.57227 572.51953 A 128.57143 128.57143 0 0 0 577.14258 443.94727 A 128.57143 128.57143 0 0 0 448.57227 315.37695 z "
         style="opacity:1;vector-effect:none;fill:#ffffff;fill-opacity:1;stroke:#000000;stroke-width:11.58425236;stroke-linecap:butt;stroke-linejoin:miter;stroke-miterlimit:3.9000001;stroke-dasharray:none;stroke-dashoffset:0;stroke-opacity:1" />
      <ellipse
         ry="14.407322"
         rx="6.4239655"
         cy="117.78853"
         cx="92.9151"
         id="path4490"
         style="opacity:1;vector-effect:none;fill:#ac9393;fill-opacity:1;stroke:none;stroke-width:10.64069653;stroke-linecap:butt;stroke-linejoin:miter;stroke-miterlimit:3.9000001;stroke-dasharray:none;stroke-dashoffset:0;stroke-opacity:1" />
      <path
         sodipodi:nodetypes="czzc"
         inkscape:connector-curvature="0"
         id="path4492"
         d="m 100.43559,94.607155 c 0,0 12.48294,-14.399473 33.46644,-3.404691 20.9835,10.994786 15.50695,36.355306 8.81989,43.832206 -6.68706,7.4769 9.70763,33.3382 9.70763,33.3382"
         style="fill:none;stroke:#916f6f;stroke-width:2.265;stroke-linecap:butt;stroke-linejoin:miter;stroke-opacity:1;stroke-miterlimit:4;stroke-dasharray:none" />
      <path
         sodipodi:nodetypes="csc"
         inkscape:connector-curvature="0"
         id="path4494"
         d="m 102.09695,141.71641 c 0,0 12.94348,11.46292 30.46873,1.87088 6.86171,-3.7556 14.43256,25.92514 14.43256,25.92514"
         style="fill:none;stroke:#916f6f;stroke-width:2.2650001;stroke-linecap:butt;stroke-linejoin:miter;stroke-opacity:1;font-variant-east_asian:normal;opacity:1;vector-effect:none;fill-opacity:1;stroke-miterlimit:4;stroke-dasharray:none;stroke-dashoffset:0" />
      <path
         inkscape:connector-curvature="0"
         id="path4486"
         d="m 91.348429,97.27985 c -6.35672,10.76059 -5.82218,15.57144 -5.82218,15.57144 v 0"
         style="fill:none;stroke:#0000ff;stroke-width:0.865;stroke-linecap:butt;stroke-linejoin:miter;stroke-opacity:1;stroke-miterlimit:4;stroke-dasharray:none" />
      <path
         inkscape:connector-curvature="0"
         id="path4486-5"
         d="m 91.759364,139.50776 c -6.35672,-10.76059 -5.82218,-15.57144 -5.82218,-15.57144 v 0"
         style="fill:none;stroke:#0000ff;stroke-width:0.865;stroke-linecap:butt;stroke-linejoin:miter;stroke-opacity:1;stroke-miterlimit:4;stroke-dasharray:none" />
    </g>
    <path
       style="fill:none;stroke:#000000;stroke-width:0.26458332px;stroke-linecap:butt;stroke-linejoin:miter;stroke-opacity:1"
       d="m 9.0714284,113.87053 83.5327376,0.75596 73.327374,4.15773 -72.193444,4.91369 L 8.8824405,122.375"
       id="path4511"
       inkscape:connector-curvature="0"
       sodipodi:nodetypes="ccccc" />
  </g>
</svg>
